<svg width="300" height="200" viewBox="0 0 300 200" xmlns="http://www.w3.org/2000/svg">
<rect x="0" y="0" width="300" height="200" opacity="1" fill="#FFFFFF" stroke="none"/>
<line opacity="0.1" stroke="#000000" stroke-width="1" x1="25" y1="174" x2="25" y2="5"/>
<line opacity="0.1" stroke="#000000" stroke-width="1" x1="92" y1="174" x2="92" y2="5"/>
<line opacity="0.1" stroke="#000000" stroke-width="1" x1="159" y1="174" x2="159" y2="5"/>
<line opacity="0.1" stroke="#000000" stroke-width="1" x1="226" y1="174" x2="226" y2="5"/>
<line opacity="0.1" stroke="#000000" stroke-width="1" x1="294" y1="174" x2="294" y2="5"/>
<line opacity="0.1" stroke="#000000" stroke-width="1" x1="25" y1="174" x2="294" y2="174"/>
<line opacity="0.1" stroke="#000000" stroke-width="1" x1="25" y1="172" x2="294" y2="172"/>
<line opacity="0.1" stroke="#000000" stroke-width="1" x1="25" y1="170" x2="294" y2="170"/>
<line opacity="0.1" stroke="#000000" stroke-width="1" x1="25" y1="168" x2="294" y2="168"/>
<line opacity="0.1" stroke="#000000" stroke-width="1" x1="25" y1="166" x2="294" y2="166"/>
<line opacity="0.1" stroke="#000000" stroke-width="1" x1="25" y1="164" x2="294" y2="164"/>
<line opacity="0.1" stroke="#000000" stroke-width="1" x1="25" y1="162" x2="294" y2="162"/>
<line opacity="0.1" stroke="#000000" stroke-width="1" x1="25" y1="160" x2="294" y2="160"/>
<line opacity="0.1" stroke="#000000" stroke-width="1" x1="25" y1="158" x2="294" y2="158"/>
<line opacity="0.1" stroke="#000000" stroke-width="1" x1="25" y1="156" x2="294" y2="156"/>
<line opacity="0.1" stroke="#000000" stroke-width="1" x1="25" y1="154" x2="294" y2="154"/>
<line opacity="0.1" stroke="#000000" stroke-width="1" x1="25" y1="152" x2="294" y2="152"/>
<line opacity="0.1" stroke="#000000" stroke-width="1" x1="25" y1="150" x2="294" y2="150"/>
<line opacity="0.1" stroke="#000000" stroke-width="1" x1="25" y1="147" x2="294" y2="147"/>
<line opacity="0.1" stroke="#000000" stroke-width="1" x1="25" y1="145" x2="294" y2="145"/>
<line opacity="0.1" stroke="#000000" stroke-width="1" x1="25" y1="143" x2="294" y2="143"/>
<line opacity="0.1" stroke="#000000" stroke-width="1" x1="25" y1="141" x2="294" y2="141"/>
<line opacity="0.1" stroke="#000000" stroke-width="1" x1="25" y1="139" x2="294" y2="139"/>
<line opacity="0.1" stroke="#000000" stroke-width="1" x1="25" y1="137" x2="294" y2="137"/>
<line opacity="0.1" stroke="#000000" stroke-width="1" x1="25" y1="135" x2="294" y2="135"/>
<line opacity="0.1" stroke="#000000" stroke-width="1" x1="25" y1="133" x2="294" y2="133"/>
<line opacity="0.1" stroke="#000000" stroke-width="1" x1="25" y1="131" x2="294" y2="131"/>
<line opacity="0.1" stroke="#000000" stroke-width="1" x1="25" y1="129" x2="294" y2="129"/>
<line opacity="0.1" stroke="#000000" stroke-width="1" x1="25" y1="127" x2="294" y2="127"/>
<line opacity="0.1" stroke="#000000" stroke-width="1" x1="25" y1="125" x2="294" y2="125"/>
<line opacity="0.1" stroke="#000000" stroke-width="1" x1="25" y1="122" x2="294" y2="122"/>
<line opacity="0.1" stroke="#000000" stroke-width="1" x1="25" y1="120" x2="294" y2="120"/>
<line opacity="0.1" stroke="#000000" stroke-width="1" x1="25" y1="118" x2="294" y2="118"/>
<line opacity="0.1" stroke="#000000" stroke-width="1" x1="25" y1="116" x2="294" y2="116"/>
<line opacity="0.1" stroke="#000000" stroke-width="1" x1="25" y1="114" x2="294" y2="114"/>
<line opacity="0.1" stroke="#000000" stroke-width="1" x1="25" y1="112" x2="294" y2="112"/>
<line opacity="0.1" stroke="#000000" stroke-width="1" x1="25" y1="110" x2="294" y2="110"/>
<line opacity="0.1" stroke="#000000" stroke-width="1" x1="25" y1="108" x2="294" y2="108"/>
<line opacity="0.1" stroke="#000000" stroke-width="1" x1="25" y1="106" x2="294" y2="106"/>
<line opacity="0.1" stroke="#000000" stroke-width="1" x1="25" y1="104" x2="294" y2="104"/>
<line opacity="0.1" stroke="#000000" stroke-width="1" x1="25" y1="102" x2="294" y2="102"/>
<line opacity="0.1" stroke="#000000" stroke-width="1" x1="25" y1="100" x2="294" y2="100"/>
<line opacity="0.1" stroke="#000000" stroke-width="1" x1="25" y1="98" x2="294" y2="98"/>
<line opacity="0.1" stroke="#000000" stroke-width="1" x1="25" y1="95" x2="294" y2="95"/>
<line opacity="0.1" stroke="#000000" stroke-width="1" x1="25" y1="93" x2="294" y2="93"/>
<line opacity="0.1" stroke="#000000" stroke-width="1" x1="25" y1="91" x2="294" y2="91"/>
<line opacity="0.1" stroke="#000000" stroke-width="1" x1="25" y1="89" x2="294" y2="89"/>
<line opacity="0.1" stroke="#000000" stroke-width="1" x1="25" y1="87" x2="294" y2="87"/>
<line opacity="0.1" stroke="#000000" stroke-width="1" x1="25" y1="85" x2="294" y2="85"/>
<line opacity="0.1" stroke="#000000" stroke-width="1" x1="25" y1="83" x2="294" y2="83"/>
<line opacity="0.1" stroke="#000000" stroke-width="1" x1="25" y1="81" x2="294" y2="81"/>
<line opacity="0.1" stroke="#000000" stroke-width="1" x1="25" y1="79" x2="294" y2="79"/>
<line opacity="0.1" stroke="#000000" stroke-width="1" x1="25" y1="77" x2="294" y2="77"/>
<line opacity="0.1" stroke="#000000" stroke-width="1" x1="25" y1="75" x2="294" y2="75"/>
<line opacity="0.1" stroke="#000000" stroke-width="1" x1="25" y1="73" x2="294" y2="73"/>
<line opacity="0.1" stroke="#000000" stroke-width="1" x1="25" y1="70" x2="294" y2="70"/>
<line opacity="0.1" stroke="#000000" stroke-width="1" x1="25" y1="68" x2="294" y2="68"/>
<line opacity="0.1" stroke="#000000" stroke-width="1" x1="25" y1="66" x2="294" y2="66"/>
<line opacity="0.1" stroke="#000000" stroke-width="1" x1="25" y1="64" x2="294" y2="64"/>
<line opacity="0.1" stroke="#000000" stroke-width="1" x1="25" y1="62" x2="294" y2="62"/>
<line opacity="0.1" stroke="#000000" stroke-width="1" x1="25" y1="60" x2="294" y2="60"/>
<line opacity="0.1" stroke="#000000" stroke-width="1" x1="25" y1="58" x2="294" y2="58"/>
<line opacity="0.1" stroke="#000000" stroke-width="1" x1="25" y1="56" x2="294" y2="56"/>
<line opacity="0.1" stroke="#000000" stroke-width="1" x1="25" y1="54" x2="294" y2="54"/>
<line opacity="0.1" stroke="#000000" stroke-width="1" x1="25" y1="52" x2="294" y2="52"/>
<line opacity="0.1" stroke="#000000" stroke-width="1" x1="25" y1="50" x2="294" y2="50"/>
<line opacity="0.1" stroke="#000000" stroke-width="1" x1="25" y1="48" x2="294" y2="48"/>
<line opacity="0.1" stroke="#000000" stroke-width="1" x1="25" y1="46" x2="294" y2="46"/>
<line opacity="0.1" stroke="#000000" stroke-width="1" x1="25" y1="43" x2="294" y2="43"/>
<line opacity="0.1" stroke="#000000" stroke-width="1" x1="25" y1="41" x2="294" y2="41"/>
<line opacity="0.1" stroke="#000000" stroke-width="1" x1="25" y1="39" x2="294" y2="39"/>
<line opacity="0.1" stroke="#000000" stroke-width="1" x1="25" y1="37" x2="294" y2="37"/>
<line opacity="0.1" stroke="#000000" stroke-width="1" x1="25" y1="35" x2="294" y2="35"/>
<line opacity="0.1" stroke="#000000" stroke-width="1" x1="25" y1="33" x2="294" y2="33"/>
<line opacity="0.1" stroke="#000000" stroke-width="1" x1="25" y1="31" x2="294" y2="31"/>
<line opacity="0.1" stroke="#000000" stroke-width="1" x1="25" y1="29" x2="294" y2="29"/>
<line opacity="0.1" stroke="#000000" stroke-width="1" x1="25" y1="27" x2="294" y2="27"/>
<line opacity="0.1" stroke="#000000" stroke-width="1" x1="25" y1="25" x2="294" y2="25"/>
<line opacity="0.1" stroke="#000000" stroke-width="1" x1="25" y1="23" x2="294" y2="23"/>
<line opacity="0.1" stroke="#000000" stroke-width="1" x1="25" y1="21" x2="294" y2="21"/>
<line opacity="0.1" stroke="#000000" stroke-width="1" x1="25" y1="18" x2="294" y2="18"/>
<line opacity="0.1" stroke="#000000" stroke-width="1" x1="25" y1="16" x2="294" y2="16"/>
<line opacity="0.1" stroke="#000000" stroke-width="1" x1="25" y1="14" x2="294" y2="14"/>
<line opacity="0.1" stroke="#000000" stroke-width="1" x1="25" y1="12" x2="294" y2="12"/>
<line opacity="0.1" stroke="#000000" stroke-width="1" x1="25" y1="10" x2="294" y2="10"/>
<line opacity="0.1" stroke="#000000" stroke-width="1" x1="25" y1="8" x2="294" y2="8"/>
<line opacity="0.1" stroke="#000000" stroke-width="1" x1="25" y1="6" x2="294" y2="6"/>
<line opacity="0.2" stroke="#000000" stroke-width="1" x1="25" y1="174" x2="25" y2="5"/>
<line opacity="0.2" stroke="#000000" stroke-width="1" x1="92" y1="174" x2="92" y2="5"/>
<line opacity="0.2" stroke="#000000" stroke-width="1" x1="159" y1="174" x2="159" y2="5"/>
<line opacity="0.2" stroke="#000000" stroke-width="1" x1="226" y1="174" x2="226" y2="5"/>
<line opacity="0.2" stroke="#000000" stroke-width="1" x1="294" y1="174" x2="294" y2="5"/>
<line opacity="0.2" stroke="#000000" stroke-width="1" x1="25" y1="174" x2="294" y2="174"/>
<line opacity="0.2" stroke="#000000" stroke-width="1" x1="25" y1="154" x2="294" y2="154"/>
<line opacity="0.2" stroke="#000000" stroke-width="1" x1="25" y1="133" x2="294" y2="133"/>
<line opacity="0.2" stroke="#000000" stroke-width="1" x1="25" y1="112" x2="294" y2="112"/>
<line opacity="0.2" stroke="#000000" stroke-width="1" x1="25" y1="91" x2="294" y2="91"/>
<line opacity="0.2" stroke="#000000" stroke-width="1" x1="25" y1="70" x2="294" y2="70"/>
<line opacity="0.2" stroke="#000000" stroke-width="1" x1="25" y1="50" x2="294" y2="50"/>
<line opacity="0.2" stroke="#000000" stroke-width="1" x1="25" y1="29" x2="294" y2="29"/>
<line opacity="0.2" stroke="#000000" stroke-width="1" x1="25" y1="8" x2="294" y2="8"/>
<polyline fill="none" opacity="1" stroke="#000000" stroke-width="1" points="24,5 24,174 "/>
<text x="15" y="174" dy="0.5ex" text-anchor="end" font-family="sans-serif" font-size="9.67741935483871" opacity="1" fill="#000000">
0
</text>
<polyline fill="none" opacity="1" stroke="#000000" stroke-width="1" points="19,174 24,174 "/>
<text x="15" y="154" dy="0.5ex" text-anchor="end" font-family="sans-serif" font-size="9.67741935483871" opacity="1" fill="#000000">
1000
</text>
<polyline fill="none" opacity="1" stroke="#000000" stroke-width="1" points="19,154 24,154 "/>
<text x="15" y="133" dy="0.5ex" text-anchor="end" font-family="sans-serif" font-size="9.67741935483871" opacity="1" fill="#000000">
2000
</text>
<polyline fill="none" opacity="1" stroke="#000000" stroke-width="1" points="19,133 24,133 "/>
<text x="15" y="112" dy="0.5ex" text-anchor="end" font-family="sans-serif" font-size="9.67741935483871" opacity="1" fill="#000000">
3000
</text>
<polyline fill="none" opacity="1" stroke="#000000" stroke-width="1" points="19,112 24,112 "/>
<text x="15" y="91" dy="0.5ex" text-anchor="end" font-family="sans-serif" font-size="9.67741935483871" opacity="1" fill="#000000">
4000
</text>
<polyline fill="none" opacity="1" stroke="#000000" stroke-width="1" points="19,91 24,91 "/>
<text x="15" y="70" dy="0.5ex" text-anchor="end" font-family="sans-serif" font-size="9.67741935483871" opacity="1" fill="#000000">
5000
</text>
<polyline fill="none" opacity="1" stroke="#000000" stroke-width="1" points="19,70 24,70 "/>
<text x="15" y="50" dy="0.5ex" text-anchor="end" font-family="sans-serif" font-size="9.67741935483871" opacity="1" fill="#000000">
6000
</text>
<polyline fill="none" opacity="1" stroke="#000000" stroke-width="1" points="19,50 24,50 "/>
<text x="15" y="29" dy="0.5ex" text-anchor="end" font-family="sans-serif" font-size="9.67741935483871" opacity="1" fill="#000000">
7000
</text>
<polyline fill="none" opacity="1" stroke="#000000" stroke-width="1" points="19,29 24,29 "/>
<text x="15" y="8" dy="0.5ex" text-anchor="end" font-family="sans-serif" font-size="9.67741935483871" opacity="1" fill="#000000">
8000
</text>
<polyline fill="none" opacity="1" stroke="#000000" stroke-width="1" points="19,8 24,8 "/>
<polyline fill="none" opacity="1" stroke="#000000" stroke-width="1" points="25,175 294,175 "/>
<text x="25" y="185" dy="0.76em" text-anchor="middle" font-family="sans-serif" font-size="9.67741935483871" opacity="1" fill="#000000">
0
</text>
<polyline fill="none" opacity="1" stroke="#000000" stroke-width="1" points="25,175 25,180 "/>
<text x="92" y="185" dy="0.76em" text-anchor="middle" font-family="sans-serif" font-size="9.67741935483871" opacity="1" fill="#000000">
1
</text>
<polyline fill="none" opacity="1" stroke="#000000" stroke-width="1" points="92,175 92,180 "/>
<text x="159" y="185" dy="0.76em" text-anchor="middle" font-family="sans-serif" font-size="9.67741935483871" opacity="1" fill="#000000">
2
</text>
<polyline fill="none" opacity="1" stroke="#000000" stroke-width="1" points="159,175 159,180 "/>
<text x="226" y="185" dy="0.76em" text-anchor="middle" font-family="sans-serif" font-size="9.67741935483871" opacity="1" fill="#000000">
3
</text>
<polyline fill="none" opacity="1" stroke="#000000" stroke-width="1" points="226,175 226,180 "/>
<text x="294" y="185" dy="0.76em" text-anchor="middle" font-family="sans-serif" font-size="9.67741935483871" opacity="1" fill="#000000">
4
</text>
<polyline fill="none" opacity="1" stroke="#000000" stroke-width="1" points="294,175 294,180 "/>
<rect x="102" y="174" width="47" height="0" opacity="1" fill="#0000FF" stroke="none"/>
<rect x="236" y="174" width="48" height="0" opacity="1" fill="#0000FF" stroke="none"/>
<rect x="169" y="174" width="47" height="0" opacity="1" fill="#0000FF" stroke="none"/>
<rect x="35" y="5" width="47" height="169" opacity="1" fill="#0000FF" stroke="none"/>
</svg>
