<svg width="300" height="200" viewBox="0 0 300 200" xmlns="http://www.w3.org/2000/svg">
<rect x="0" y="0" width="300" height="200" opacity="1" fill="#FFFFFF" stroke="none"/>
<line opacity="0.1" stroke="#000000" stroke-width="1" x1="25" y1="174" x2="25" y2="5"/>
<line opacity="0.1" stroke="#000000" stroke-width="1" x1="92" y1="174" x2="92" y2="5"/>
<line opacity="0.1" stroke="#000000" stroke-width="1" x1="159" y1="174" x2="159" y2="5"/>
<line opacity="0.1" stroke="#000000" stroke-width="1" x1="226" y1="174" x2="226" y2="5"/>
<line opacity="0.1" stroke="#000000" stroke-width="1" x1="294" y1="174" x2="294" y2="5"/>
<line opacity="0.1" stroke="#000000" stroke-width="1" x1="25" y1="174" x2="294" y2="174"/>
<line opacity="0.1" stroke="#000000" stroke-width="1" x1="25" y1="172" x2="294" y2="172"/>
<line opacity="0.1" stroke="#000000" stroke-width="1" x1="25" y1="170" x2="294" y2="170"/>
<line opacity="0.1" stroke="#000000" stroke-width="1" x1="25" y1="168" x2="294" y2="168"/>
<line opacity="0.1" stroke="#000000" stroke-width="1" x1="25" y1="166" x2="294" y2="166"/>
<line opacity="0.1" stroke="#000000" stroke-width="1" x1="25" y1="164" x2="294" y2="164"/>
<line opacity="0.1" stroke="#000000" stroke-width="1" x1="25" y1="162" x2="294" y2="162"/>
<line opacity="0.1" stroke="#000000" stroke-width="1" x1="25" y1="160" x2="294" y2="160"/>
<line opacity="0.1" stroke="#000000" stroke-width="1" x1="25" y1="158" x2="294" y2="158"/>
<line opacity="0.1" stroke="#000000" stroke-width="1" x1="25" y1="156" x2="294" y2="156"/>
<line opacity="0.1" stroke="#000000" stroke-width="1" x1="25" y1="154" x2="294" y2="154"/>
<line opacity="0.1" stroke="#000000" stroke-width="1" x1="25" y1="152" x2="294" y2="152"/>
<line opacity="0.1" stroke="#000000" stroke-width="1" x1="25" y1="150" x2="294" y2="150"/>
<line opacity="0.1" stroke="#000000" stroke-width="1" x1="25" y1="148" x2="294" y2="148"/>
<line opacity="0.1" stroke="#000000" stroke-width="1" x1="25" y1="146" x2="294" y2="146"/>
<line opacity="0.1" stroke="#000000" stroke-width="1" x1="25" y1="144" x2="294" y2="144"/>
<line opacity="0.1" stroke="#000000" stroke-width="1" x1="25" y1="141" x2="294" y2="141"/>
<line opacity="0.1" stroke="#000000" stroke-width="1" x1="25" y1="139" x2="294" y2="139"/>
<line opacity="0.1" stroke="#000000" stroke-width="1" x1="25" y1="137" x2="294" y2="137"/>
<line opacity="0.1" stroke="#000000" stroke-width="1" x1="25" y1="135" x2="294" y2="135"/>
<line opacity="0.1" stroke="#000000" stroke-width="1" x1="25" y1="133" x2="294" y2="133"/>
<line opacity="0.1" stroke="#000000" stroke-width="1" x1="25" y1="131" x2="294" y2="131"/>
<line opacity="0.1" stroke="#000000" stroke-width="1" x1="25" y1="129" x2="294" y2="129"/>
<line opacity="0.1" stroke="#000000" stroke-width="1" x1="25" y1="127" x2="294" y2="127"/>
<line opacity="0.1" stroke="#000000" stroke-width="1" x1="25" y1="125" x2="294" y2="125"/>
<line opacity="0.1" stroke="#000000" stroke-width="1" x1="25" y1="123" x2="294" y2="123"/>
<line opacity="0.1" stroke="#000000" stroke-width="1" x1="25" y1="121" x2="294" y2="121"/>
<line opacity="0.1" stroke="#000000" stroke-width="1" x1="25" y1="119" x2="294" y2="119"/>
<line opacity="0.1" stroke="#000000" stroke-width="1" x1="25" y1="117" x2="294" y2="117"/>
<line opacity="0.1" stroke="#000000" stroke-width="1" x1="25" y1="115" x2="294" y2="115"/>
<line opacity="0.1" stroke="#000000" stroke-width="1" x1="25" y1="113" x2="294" y2="113"/>
<line opacity="0.1" stroke="#000000" stroke-width="1" x1="25" y1="110" x2="294" y2="110"/>
<line opacity="0.1" stroke="#000000" stroke-width="1" x1="25" y1="108" x2="294" y2="108"/>
<line opacity="0.1" stroke="#000000" stroke-width="1" x1="25" y1="106" x2="294" y2="106"/>
<line opacity="0.1" stroke="#000000" stroke-width="1" x1="25" y1="104" x2="294" y2="104"/>
<line opacity="0.1" stroke="#000000" stroke-width="1" x1="25" y1="102" x2="294" y2="102"/>
<line opacity="0.1" stroke="#000000" stroke-width="1" x1="25" y1="100" x2="294" y2="100"/>
<line opacity="0.1" stroke="#000000" stroke-width="1" x1="25" y1="98" x2="294" y2="98"/>
<line opacity="0.1" stroke="#000000" stroke-width="1" x1="25" y1="96" x2="294" y2="96"/>
<line opacity="0.1" stroke="#000000" stroke-width="1" x1="25" y1="94" x2="294" y2="94"/>
<line opacity="0.1" stroke="#000000" stroke-width="1" x1="25" y1="92" x2="294" y2="92"/>
<line opacity="0.1" stroke="#000000" stroke-width="1" x1="25" y1="90" x2="294" y2="90"/>
<line opacity="0.1" stroke="#000000" stroke-width="1" x1="25" y1="88" x2="294" y2="88"/>
<line opacity="0.1" stroke="#000000" stroke-width="1" x1="25" y1="86" x2="294" y2="86"/>
<line opacity="0.1" stroke="#000000" stroke-width="1" x1="25" y1="84" x2="294" y2="84"/>
<line opacity="0.1" stroke="#000000" stroke-width="1" x1="25" y1="82" x2="294" y2="82"/>
<line opacity="0.1" stroke="#000000" stroke-width="1" x1="25" y1="79" x2="294" y2="79"/>
<line opacity="0.1" stroke="#000000" stroke-width="1" x1="25" y1="77" x2="294" y2="77"/>
<line opacity="0.1" stroke="#000000" stroke-width="1" x1="25" y1="75" x2="294" y2="75"/>
<line opacity="0.1" stroke="#000000" stroke-width="1" x1="25" y1="73" x2="294" y2="73"/>
<line opacity="0.1" stroke="#000000" stroke-width="1" x1="25" y1="71" x2="294" y2="71"/>
<line opacity="0.1" stroke="#000000" stroke-width="1" x1="25" y1="69" x2="294" y2="69"/>
<line opacity="0.1" stroke="#000000" stroke-width="1" x1="25" y1="67" x2="294" y2="67"/>
<line opacity="0.1" stroke="#000000" stroke-width="1" x1="25" y1="65" x2="294" y2="65"/>
<line opacity="0.1" stroke="#000000" stroke-width="1" x1="25" y1="63" x2="294" y2="63"/>
<line opacity="0.1" stroke="#000000" stroke-width="1" x1="25" y1="61" x2="294" y2="61"/>
<line opacity="0.1" stroke="#000000" stroke-width="1" x1="25" y1="59" x2="294" y2="59"/>
<line opacity="0.1" stroke="#000000" stroke-width="1" x1="25" y1="57" x2="294" y2="57"/>
<line opacity="0.1" stroke="#000000" stroke-width="1" x1="25" y1="55" x2="294" y2="55"/>
<line opacity="0.1" stroke="#000000" stroke-width="1" x1="25" y1="53" x2="294" y2="53"/>
<line opacity="0.1" stroke="#000000" stroke-width="1" x1="25" y1="51" x2="294" y2="51"/>
<line opacity="0.1" stroke="#000000" stroke-width="1" x1="25" y1="48" x2="294" y2="48"/>
<line opacity="0.1" stroke="#000000" stroke-width="1" x1="25" y1="46" x2="294" y2="46"/>
<line opacity="0.1" stroke="#000000" stroke-width="1" x1="25" y1="44" x2="294" y2="44"/>
<line opacity="0.1" stroke="#000000" stroke-width="1" x1="25" y1="42" x2="294" y2="42"/>
<line opacity="0.1" stroke="#000000" stroke-width="1" x1="25" y1="40" x2="294" y2="40"/>
<line opacity="0.1" stroke="#000000" stroke-width="1" x1="25" y1="38" x2="294" y2="38"/>
<line opacity="0.1" stroke="#000000" stroke-width="1" x1="25" y1="36" x2="294" y2="36"/>
<line opacity="0.1" stroke="#000000" stroke-width="1" x1="25" y1="34" x2="294" y2="34"/>
<line opacity="0.1" stroke="#000000" stroke-width="1" x1="25" y1="32" x2="294" y2="32"/>
<line opacity="0.1" stroke="#000000" stroke-width="1" x1="25" y1="30" x2="294" y2="30"/>
<line opacity="0.1" stroke="#000000" stroke-width="1" x1="25" y1="28" x2="294" y2="28"/>
<line opacity="0.1" stroke="#000000" stroke-width="1" x1="25" y1="26" x2="294" y2="26"/>
<line opacity="0.1" stroke="#000000" stroke-width="1" x1="25" y1="24" x2="294" y2="24"/>
<line opacity="0.1" stroke="#000000" stroke-width="1" x1="25" y1="22" x2="294" y2="22"/>
<line opacity="0.1" stroke="#000000" stroke-width="1" x1="25" y1="20" x2="294" y2="20"/>
<line opacity="0.1" stroke="#000000" stroke-width="1" x1="25" y1="18" x2="294" y2="18"/>
<line opacity="0.1" stroke="#000000" stroke-width="1" x1="25" y1="15" x2="294" y2="15"/>
<line opacity="0.1" stroke="#000000" stroke-width="1" x1="25" y1="13" x2="294" y2="13"/>
<line opacity="0.1" stroke="#000000" stroke-width="1" x1="25" y1="11" x2="294" y2="11"/>
<line opacity="0.1" stroke="#000000" stroke-width="1" x1="25" y1="9" x2="294" y2="9"/>
<line opacity="0.1" stroke="#000000" stroke-width="1" x1="25" y1="7" x2="294" y2="7"/>
<line opacity="0.2" stroke="#000000" stroke-width="1" x1="25" y1="174" x2="25" y2="5"/>
<line opacity="0.2" stroke="#000000" stroke-width="1" x1="92" y1="174" x2="92" y2="5"/>
<line opacity="0.2" stroke="#000000" stroke-width="1" x1="159" y1="174" x2="159" y2="5"/>
<line opacity="0.2" stroke="#000000" stroke-width="1" x1="226" y1="174" x2="226" y2="5"/>
<line opacity="0.2" stroke="#000000" stroke-width="1" x1="294" y1="174" x2="294" y2="5"/>
<line opacity="0.2" stroke="#000000" stroke-width="1" x1="25" y1="174" x2="294" y2="174"/>
<line opacity="0.2" stroke="#000000" stroke-width="1" x1="25" y1="154" x2="294" y2="154"/>
<line opacity="0.2" stroke="#000000" stroke-width="1" x1="25" y1="133" x2="294" y2="133"/>
<line opacity="0.2" stroke="#000000" stroke-width="1" x1="25" y1="113" x2="294" y2="113"/>
<line opacity="0.2" stroke="#000000" stroke-width="1" x1="25" y1="92" x2="294" y2="92"/>
<line opacity="0.2" stroke="#000000" stroke-width="1" x1="25" y1="71" x2="294" y2="71"/>
<line opacity="0.2" stroke="#000000" stroke-width="1" x1="25" y1="51" x2="294" y2="51"/>
<line opacity="0.2" stroke="#000000" stroke-width="1" x1="25" y1="30" x2="294" y2="30"/>
<line opacity="0.2" stroke="#000000" stroke-width="1" x1="25" y1="9" x2="294" y2="9"/>
<polyline fill="none" opacity="1" stroke="#000000" stroke-width="1" points="24,5 24,174 "/>
<text x="15" y="174" dy="0.5ex" text-anchor="end" font-family="sans-serif" font-size="9.67741935483871" opacity="1" fill="#000000">
0
</text>
<polyline fill="none" opacity="1" stroke="#000000" stroke-width="1" points="19,174 24,174 "/>
<text x="15" y="154" dy="0.5ex" text-anchor="end" font-family="sans-serif" font-size="9.67741935483871" opacity="1" fill="#000000">
1000
</text>
<polyline fill="none" opacity="1" stroke="#000000" stroke-width="1" points="19,154 24,154 "/>
<text x="15" y="133" dy="0.5ex" text-anchor="end" font-family="sans-serif" font-size="9.67741935483871" opacity="1" fill="#000000">
2000
</text>
<polyline fill="none" opacity="1" stroke="#000000" stroke-width="1" points="19,133 24,133 "/>
<text x="15" y="113" dy="0.5ex" text-anchor="end" font-family="sans-serif" font-size="9.67741935483871" opacity="1" fill="#000000">
3000
</text>
<polyline fill="none" opacity="1" stroke="#000000" stroke-width="1" points="19,113 24,113 "/>
<text x="15" y="92" dy="0.5ex" text-anchor="end" font-family="sans-serif" font-size="9.67741935483871" opacity="1" fill="#000000">
4000
</text>
<polyline fill="none" opacity="1" stroke="#000000" stroke-width="1" points="19,92 24,92 "/>
<text x="15" y="71" dy="0.5ex" text-anchor="end" font-family="sans-serif" font-size="9.67741935483871" opacity="1" fill="#000000">
5000
</text>
<polyline fill="none" opacity="1" stroke="#000000" stroke-width="1" points="19,71 24,71 "/>
<text x="15" y="51" dy="0.5ex" text-anchor="end" font-family="sans-serif" font-size="9.67741935483871" opacity="1" fill="#000000">
6000
</text>
<polyline fill="none" opacity="1" stroke="#000000" stroke-width="1" points="19,51 24,51 "/>
<text x="15" y="30" dy="0.5ex" text-anchor="end" font-family="sans-serif" font-size="9.67741935483871" opacity="1" fill="#000000">
7000
</text>
<polyline fill="none" opacity="1" stroke="#000000" stroke-width="1" points="19,30 24,30 "/>
<text x="15" y="9" dy="0.5ex" text-anchor="end" font-family="sans-serif" font-size="9.67741935483871" opacity="1" fill="#000000">
8000
</text>
<polyline fill="none" opacity="1" stroke="#000000" stroke-width="1" points="19,9 24,9 "/>
<polyline fill="none" opacity="1" stroke="#000000" stroke-width="1" points="25,175 294,175 "/>
<text x="25" y="185" dy="0.76em" text-anchor="middle" font-family="sans-serif" font-size="9.67741935483871" opacity="1" fill="#000000">
0
</text>
<polyline fill="none" opacity="1" stroke="#000000" stroke-width="1" points="25,175 25,180 "/>
<text x="92" y="185" dy="0.76em" text-anchor="middle" font-family="sans-serif" font-size="9.67741935483871" opacity="1" fill="#000000">
1
</text>
<polyline fill="none" opacity="1" stroke="#000000" stroke-width="1" points="92,175 92,180 "/>
<text x="159" y="185" dy="0.76em" text-anchor="middle" font-family="sans-serif" font-size="9.67741935483871" opacity="1" fill="#000000">
2
</text>
<polyline fill="none" opacity="1" stroke="#000000" stroke-width="1" points="159,175 159,180 "/>
<text x="226" y="185" dy="0.76em" text-anchor="middle" font-family="sans-serif" font-size="9.67741935483871" opacity="1" fill="#000000">
3
</text>
<polyline fill="none" opacity="1" stroke="#000000" stroke-width="1" points="226,175 226,180 "/>
<text x="294" y="185" dy="0.76em" text-anchor="middle" font-family="sans-serif" font-size="9.67741935483871" opacity="1" fill="#000000">
4
</text>
<polyline fill="none" opacity="1" stroke="#000000" stroke-width="1" points="294,175 294,180 "/>
<rect x="169" y="174" width="47" height="0" opacity="1" fill="#0000FF" stroke="none"/>
<rect x="236" y="174" width="48" height="0" opacity="1" fill="#0000FF" stroke="none"/>
<rect x="35" y="5" width="47" height="169" opacity="1" fill="#0000FF" stroke="none"/>
<rect x="102" y="174" width="47" height="0" opacity="1" fill="#0000FF" stroke="none"/>
</svg>
